<svg xmlns="http://www.w3.org/2000/svg" width="32" height="32" viewBox="0 0 32 32">
  <rect width="32" height="32" rx="7" fill="#0d9488"/>
  <path d="M21.5 17.2h-4.3v-2.1h6.5v7.4c-1.1.9-2.3 1.5-3.5 1.9-1.2.4-2.5.6-3.8.6-1.8 0-3.4-.4-4.8-1.1-1.4-.8-2.5-1.8-3.2-3.2-.8-1.4-1.2-2.9-1.2-4.6s.4-3.3 1.2-4.7c.8-1.4 1.9-2.4 3.3-3.2 1.1-.6 2.5-.9 4.1-.9 2 0 3.6.4 4.8 1.3 1.2.9 2 2.1 2.3 3.7h-3.1c-.3-.8-.8-1.4-1.5-1.9-.7-.4-1.6-.7-2.6-.7-1.6 0-2.8.5-3.8 1.5-.9 1-1.4 2.4-1.4 4.2 0 1.9.5 3.3 1.5 4.3 1 1 2.2 1.5 3.8 1.5.9 0 1.8-.2 2.5-.5.7-.3 1.4-.8 1.9-1.3v-2.2z" fill="#fff"/>
</svg>
